# xmcd
#
# Track frame offsets:
#  150
#  11607
#  23640
#  38682
#  51130
#  63207
#  77017
#  88550
#
# Disc length: 1348 seconds
#
# Revision: 0
# Processed by: cddbd v1.5.2PL0 Copyright (c) Steve Scherf et al.
# Submitted via: AltoMP3_Maker 3.0
#
DISCID=50054208
DTITLE=Varios - Temas del Oeste [CD 1)
DYEAR=1900
DGENRE=
TTITLE0=La muerte tenía un precio
TTITLE1=Ella llevanba un lazo amarillo
TTITLE2=Por un puñado de Doares
TTITLE3=Solo ante el peligro
TTITLE4=Oh Susana
TTITLE5=El Alamo
TTITLE6=100000 $ por Ringo
TTITLE7=Jhonny Guitar
EXTD=
EXTT0=
EXTT1=
EXTT2=
EXTT3=
EXTT4=
EXTT5=
EXTT6=
EXTT7=
PLAYORDER=
